<?xml version="1.0" standalone="no"?>
<!DOCTYPE svg PUBLIC "-//W3C//DTD SVG 20010904//EN" "http://www.w3.org/TR/2001/REC-SVG-20010904/DTD/svg10.dtd">
<svg version="1.0" xmlns="http://www.w3.org/2000/svg"
    width="150.000000pt" height="150.000000pt" viewBox="0 0 500.000000 200.000000"
    preserveAspectRatio="xMidYMid meet">

    <g transform="translate(0.000000,450.000000) scale(0.100000,-0.100000)"
        fill="#fff" stroke="#000">
        <path
            d="M318 2552 c-125 -323 -230 -595 -234 -604 -6 -17 7 -18 178 -18 l185
0 32 85 32 85 208 0 208 0 33 -85 33 -85 188 0 189 0 2 302 3 302 110 -154
111 -155 116 -3 116 -3 113 160 114 159 3 -304 2 -304 630 0 630 0 2 306 3
305 210 -281 c116 -156 217 -293 225 -307 l15 -24 330 4 c365 4 384 7 524 74
130 62 242 196 285 343 26 85 31 231 12 320 -37 173 -148 321 -296 393 -140
68 -156 70 -552 75 l-358 3 0 -307 0 -307 -230 306 -230 307 -145 0 -145 0 0
-460 0 -460 -250 0 -250 0 0 90 0 90 215 0 215 0 0 140 0 140 -215 0 -215 0 0
90 0 90 240 0 240 0 0 140 0 140 -416 -2 -417 -3 -200 -282 c-110 -156 -203
-280 -208 -278 -4 3 -97 131 -205 285 l-197 280 -143 0 -143 0 -3 -157 -3
-158 -60 157 -60 158 -175 0 -175 -1 -227 -587z m4097 249 c111 -49 165 -136
165 -266 -1 -201 -130 -303 -375 -293 l-80 3 -3 280 c-1 154 0 286 3 294 9 23
227 10 290 -18z m-3627 -255 c34 -96 62 -177 62 -180 0 -3 -58 -6 -130 -6 -71
0 -130 3 -130 6 0 14 125 354 130 354 3 0 34 -78 68 -174z" />
    </g>
</svg>